<svg width="18" height="22" viewBox="0 0 18 22" fill="none" xmlns="http://www.w3.org/2000/svg">
<path d="M6.75 0.75V8.75L9.75 5.75L12.75 8.75V0.75" fill="black"/>
<path d="M0.75 18.25V3.25C0.75 2.58696 1.01339 1.95107 1.48223 1.48223C1.95107 1.01339 2.58696 0.75 3.25 0.75H15.75C16.0152 0.75 16.2696 0.855357 16.4571 1.04289C16.6446 1.23043 16.75 1.48478 16.75 1.75V19.75C16.75 20.0152 16.6446 20.2696 16.4571 20.4571C16.2696 20.6446 16.0152 20.75 15.75 20.75H3.25C2.58696 20.75 1.95107 20.4866 1.48223 20.0178C1.01339 19.5489 0.75 18.913 0.75 18.25C0.75 17.587 1.01339 16.9511 1.48223 16.4822C1.95107 16.0134 2.58696 15.75 3.25 15.75H16.75" fill="black"/>
<path d="M6.75 0.75V8.75L9.75 5.75L12.75 8.75V0.75M0.75 18.25V3.25C0.75 2.58696 1.01339 1.95107 1.48223 1.48223C1.95107 1.01339 2.58696 0.75 3.25 0.75H15.75C16.0152 0.75 16.2696 0.855357 16.4571 1.04289C16.6446 1.23043 16.75 1.48478 16.75 1.75V19.75C16.75 20.0152 16.6446 20.2696 16.4571 20.4571C16.2696 20.6446 16.0152 20.75 15.75 20.75H3.25C2.58696 20.75 1.95107 20.4866 1.48223 20.0178C1.01339 19.5489 0.75 18.913 0.75 18.25ZM0.75 18.25C0.75 17.587 1.01339 16.9511 1.48223 16.4822C1.95107 16.0134 2.58696 15.75 3.25 15.75H16.75" stroke="white" stroke-width="1.5" stroke-linecap="round" stroke-linejoin="round"/>
</svg>
