<svg width="42" height="42" viewBox="0 0 42 42" fill="none" xmlns="http://www.w3.org/2000/svg">
<g filter="url(#filter0_di_98_282)">
<circle cx="19" cy="19" r="17" fill="#FF8E7C" fill-opacity="0.58" shape-rendering="crispEdges"/>
</g>
<g clip-path="url(#clip0_98_282)">
<path d="M21.5 13.1667L24.8333 16.5M26.645 14.6766C27.0856 14.2361 27.3332 13.6386 27.3333 13.0156C27.3333 12.3926 27.0859 11.7951 26.6454 11.3545C26.205 10.9139 25.6075 10.6663 24.9845 10.6663C24.3615 10.6662 23.764 10.9136 23.3234 11.3541L12.2017 22.4782C12.0082 22.6712 11.8651 22.9087 11.785 23.1699L10.6842 26.7966C10.6627 26.8686 10.661 26.9452 10.6795 27.0181C10.6979 27.091 10.7358 27.1576 10.789 27.2107C10.8423 27.2639 10.9089 27.3016 10.9818 27.32C11.0548 27.3383 11.1313 27.3366 11.2034 27.3149L14.8309 26.2149C15.0918 26.1355 15.3293 25.9933 15.5225 25.8007L26.645 14.6766Z" stroke="white" stroke-width="2" stroke-linecap="round" stroke-linejoin="round"/>
</g>
<defs>
<filter id="filter0_di_98_282" x="0" y="0" width="42" height="42" filterUnits="userSpaceOnUse" color-interpolation-filters="sRGB">
<feFlood flood-opacity="0" result="BackgroundImageFix"/>
<feColorMatrix in="SourceAlpha" type="matrix" values="0 0 0 0 0 0 0 0 0 0 0 0 0 0 0 0 0 0 127 0" result="hardAlpha"/>
<feOffset dx="2" dy="2"/>
<feGaussianBlur stdDeviation="2"/>
<feComposite in2="hardAlpha" operator="out"/>
<feColorMatrix type="matrix" values="0 0 0 0 0 0 0 0 0 0 0 0 0 0 0 0 0 0 0.05 0"/>
<feBlend mode="normal" in2="BackgroundImageFix" result="effect1_dropShadow_98_282"/>
<feBlend mode="normal" in="SourceGraphic" in2="effect1_dropShadow_98_282" result="shape"/>
<feColorMatrix in="SourceAlpha" type="matrix" values="0 0 0 0 0 0 0 0 0 0 0 0 0 0 0 0 0 0 127 0" result="hardAlpha"/>
<feOffset dx="1" dy="1"/>
<feGaussianBlur stdDeviation="2"/>
<feComposite in2="hardAlpha" operator="arithmetic" k2="-1" k3="1"/>
<feColorMatrix type="matrix" values="0 0 0 0 0 0 0 0 0 0 0 0 0 0 0 0 0 0 0.04 0"/>
<feBlend mode="normal" in2="shape" result="effect2_innerShadow_98_282"/>
</filter>
<clipPath id="clip0_98_282">
<rect width="20" height="20" fill="white" transform="translate(9 9)"/>
</clipPath>
</defs>
</svg>
