<svg width="22" height="20" viewBox="0 0 22 20" fill="none" xmlns="http://www.w3.org/2000/svg">
<path d="M5.05103 9.54999C5.99103 6.08999 9.99103 3.54999 13.551 3.54999C17.111 3.54999 19.611 6.08999 20.551 9.54999C19.611 13.02 17.111 15.55 13.551 15.55C9.99103 15.55 5.99103 13.02 5.05103 9.54999Z" fill="black"/>
<path d="M16.551 9.54999V10.05Z" fill="black"/>
<path d="M14.5511 15.4801C13.2503 13.7768 12.5457 11.6932 12.5457 9.55006C12.5457 7.40693 13.2503 5.32327 14.5511 3.62006" fill="black"/>
<path d="M5.55101 8.21999C5.55101 5.54999 4.13101 3.51999 1.28101 3.04999C0.281007 4.54999 0.281007 8.04999 1.51101 9.54999C0.271007 11.05 0.271007 14.55 1.28101 16.05C4.13101 15.58 5.55101 13.55 5.55101 10.88" fill="black"/>
<path d="M9.01103 4.81C8.75103 3.43 7.72103 1.79 6.55103 0.550002H12.351C12.8255 0.548243 13.2852 0.715244 13.6479 1.02117C14.0106 1.32709 14.2527 1.75201 14.331 2.22L14.561 3.62" fill="black"/>
<path d="M14.561 15.48L14.331 16.88C14.2527 17.348 14.0106 17.7729 13.6479 18.0788C13.2852 18.3848 12.8255 18.5518 12.351 18.55H8.05103C9.01988 17.4515 9.55029 16.0347 9.54103 14.57" fill="black"/>
<path d="M16.551 9.54999V10.05M14.5511 15.4801C13.2503 13.7768 12.5457 11.6932 12.5457 9.55006C12.5457 7.40693 13.2503 5.32327 14.5511 3.62006M5.55101 8.21999C5.55101 5.54999 4.13101 3.51999 1.28101 3.04999C0.281007 4.54999 0.281007 8.04999 1.51101 9.54999C0.271007 11.05 0.271007 14.55 1.28101 16.05C4.13101 15.58 5.55101 13.55 5.55101 10.88M9.01103 4.81C8.75103 3.43 7.72103 1.79 6.55103 0.550002H12.351C12.8255 0.548243 13.2852 0.715244 13.6479 1.02117C14.0106 1.32709 14.2527 1.75201 14.331 2.22L14.561 3.62M14.561 15.48L14.331 16.88C14.2527 17.348 14.0106 17.7729 13.6479 18.0788C13.2852 18.3848 12.8255 18.5518 12.351 18.55H8.05103C9.01988 17.4515 9.55029 16.0347 9.54103 14.57M5.05103 9.54999C5.99103 6.08999 9.99103 3.54999 13.551 3.54999C17.111 3.54999 19.611 6.08999 20.551 9.54999C19.611 13.02 17.111 15.55 13.551 15.55C9.99103 15.55 5.99103 13.02 5.05103 9.54999Z" stroke="white" stroke-width="1.1" stroke-linecap="round" stroke-linejoin="round"/>
</svg>
