<svg width="22" height="20" viewBox="0 0 22 20" fill="none" xmlns="http://www.w3.org/2000/svg">
<path d="M17.001 10V10.5M15.0011 15.9301C13.7003 14.2269 12.9956 12.1432 12.9956 10.0001C12.9956 7.85695 13.7003 5.77328 15.0011 4.07007M6.00096 8.67C6.00096 6 4.58096 3.97 1.73096 3.5C0.730958 5 0.730958 8.5 1.96096 10C0.720958 11.5 0.720958 15 1.73096 16.5C4.58096 16.03 6.00096 14 6.00096 11.33M9.46098 5.26001C9.20098 3.88001 8.17098 2.24001 7.00098 1.00001H12.801C13.2755 0.998256 13.7351 1.16526 14.0978 1.47118C14.4606 1.7771 14.7027 2.20202 14.781 2.67001L15.011 4.07001M15.011 15.93L14.781 17.33C14.7027 17.798 14.4606 18.2229 14.0978 18.5289C13.7351 18.8348 13.2755 19.0018 12.801 19H8.50098C9.46983 17.9015 10.0002 16.4847 9.99098 15.02M5.50098 10C6.44098 6.54 10.441 4 14.001 4C17.561 4 20.061 6.54 21.001 10C20.061 13.47 17.561 16 14.001 16C10.441 16 6.44098 13.47 5.50098 10Z" stroke="black" stroke-width="2" stroke-linecap="round" stroke-linejoin="round"/>
</svg>
