<svg width="20" height="21" viewBox="0 0 20 21" fill="none" xmlns="http://www.w3.org/2000/svg">
<path d="M12.8 19.8005V11.8005C12.8 11.5353 12.6946 11.2809 12.5071 11.0934C12.3196 10.9058 12.0652 10.8005 11.8 10.8005H7.79999C7.53477 10.8005 7.28042 10.9058 7.09288 11.0934C6.90534 11.2809 6.79999 11.5353 6.79999 11.8005V19.8005M0.799988 8.80047C0.799918 8.50954 0.863322 8.22209 0.985776 7.95818C1.10823 7.69428 1.28679 7.46026 1.50899 7.27247L8.50899 1.27247C8.86997 0.967376 9.32734 0.799988 9.79999 0.799988C10.2726 0.799988 10.73 0.967376 11.091 1.27247L18.091 7.27247C18.3132 7.46026 18.4917 7.69428 18.6142 7.95818C18.7367 8.22209 18.8001 8.50954 18.8 8.80047V17.8005C18.8 18.3309 18.5893 18.8396 18.2142 19.2147C17.8391 19.5898 17.3304 19.8005 16.8 19.8005H2.79999C2.26955 19.8005 1.76085 19.5898 1.38577 19.2147C1.0107 18.8396 0.799988 18.3309 0.799988 17.8005V8.80047Z" stroke="black" stroke-width="1.6" stroke-linecap="round" stroke-linejoin="round"/>
</svg>
