<svg width="18" height="15" viewBox="0 0 18 15" fill="none" xmlns="http://www.w3.org/2000/svg">
<path d="M17.1667 3L9.67423 7.7725C9.41997 7.92018 9.13118 7.99796 8.83714 7.99796C8.54311 7.99796 8.25432 7.92018 8.00006 7.7725L0.500061 3" fill="#DAEEFF"/>
<path d="M15.5001 0.5H2.16673C1.24625 0.5 0.500061 1.24619 0.500061 2.16667V12.1667C0.500061 13.0871 1.24625 13.8333 2.16673 13.8333H15.5001C16.4205 13.8333 17.1667 13.0871 17.1667 12.1667V2.16667C17.1667 1.24619 16.4205 0.5 15.5001 0.5Z" fill="#DAEEFF"/>
<path d="M17.1667 3L9.67423 7.7725C9.41997 7.92018 9.13118 7.99796 8.83714 7.99796C8.54311 7.99796 8.25432 7.92018 8.00006 7.7725L0.500061 3M2.16673 0.5H15.5001C16.4205 0.5 17.1667 1.24619 17.1667 2.16667V12.1667C17.1667 13.0871 16.4205 13.8333 15.5001 13.8333H2.16673C1.24625 13.8333 0.500061 13.0871 0.500061 12.1667V2.16667C0.500061 1.24619 1.24625 0.5 2.16673 0.5Z" stroke="#A5A5A5" stroke-linecap="round" stroke-linejoin="round"/>
</svg>
