<svg width="20" height="20" viewBox="0 0 20 20" fill="none" xmlns="http://www.w3.org/2000/svg">
<path d="M9.86043 3.03334C10.5304 3.03334 11.2104 3.12334 11.8604 3.29334C13.6404 1.29334 16.8904 0.453345 18.2804 1.03334C19.6804 1.61334 17.8604 8.03334 17.8604 8.03334C18.4304 9.10334 18.8604 10.2733 18.8604 11.4733C18.8604 15.9333 14.8304 19.0333 9.86043 19.0333C4.89043 19.0333 0.86043 16.0333 0.86043 11.4733C0.86043 10.2233 1.36043 9.07335 1.86043 8.03334C1.86043 8.03334 -0.0295699 1.61334 1.36043 1.03334C2.75043 0.453345 6.08043 1.26334 7.86043 3.26334C8.51645 3.11245 9.18728 3.03531 9.86043 3.03334Z" fill="black"/>
<path d="M5.86047 12.0333V12.5333V12.0333Z" fill="black"/>
<path d="M13.8605 12.0333V12.5333V12.0333Z" fill="black"/>
<path d="M9.11047 14.2833H10.6105L9.86047 15.0333L9.11047 14.2833Z" fill="black"/>
<path d="M5.86047 12.0333V12.5333M13.8605 12.0333V12.5333M9.86043 3.03334C10.5304 3.03334 11.2104 3.12334 11.8604 3.29334C13.6404 1.29334 16.8904 0.453345 18.2804 1.03334C19.6804 1.61334 17.8604 8.03334 17.8604 8.03334C18.4304 9.10334 18.8604 10.2733 18.8604 11.4733C18.8604 15.9333 14.8304 19.0333 9.86043 19.0333C4.89043 19.0333 0.86043 16.0333 0.86043 11.4733C0.86043 10.2233 1.36043 9.07334 1.86043 8.03334C1.86043 8.03334 -0.0295699 1.61334 1.36043 1.03334C2.75043 0.453345 6.08043 1.26334 7.86043 3.26334C8.51645 3.11245 9.18728 3.03531 9.86043 3.03334ZM9.11047 14.2833H10.6105L9.86047 15.0333L9.11047 14.2833Z" stroke="white" stroke-width="1.7" stroke-linecap="round" stroke-linejoin="round"/>
</svg>
