<svg width="21" height="21" viewBox="0 0 21 21" fill="none" xmlns="http://www.w3.org/2000/svg">
<path d="M6.01038 12.1833V12.6833M14.0104 12.1833V12.6833M10.0103 3.18337C10.6803 3.18337 11.3603 3.27337 12.0103 3.44337C13.7903 1.44337 17.0403 0.603369 18.4303 1.18337C19.8303 1.76337 18.0103 8.18337 18.0103 8.18337C18.5803 9.25337 19.0103 10.4234 19.0103 11.6234C19.0103 16.0834 14.9803 19.1834 10.0103 19.1834C5.04033 19.1834 1.01033 16.1834 1.01033 11.6234C1.01033 10.3734 1.51033 9.22337 2.01033 8.18337C2.01033 8.18337 0.120332 1.76337 1.51033 1.18337C2.90033 0.603369 6.23033 1.41337 8.01033 3.41337C8.66636 3.26248 9.33718 3.18533 10.0103 3.18337ZM9.26038 14.4333H10.7604L10.0104 15.1833L9.26038 14.4333Z" stroke="black" stroke-width="2" stroke-linecap="round" stroke-linejoin="round"/>
</svg>
